<?xml version="1.0" standalone="no"?>
<!DOCTYPE svg PUBLIC "-//W3C//DTD SVG 20010904//EN"
 "http://www.w3.org/TR/2001/REC-SVG-20010904/DTD/svg10.dtd">
<svg version="1.0" xmlns="http://www.w3.org/2000/svg"
 width="500.000000pt" height="500.000000pt" viewBox="0 0 500.000000 500.000000"
 preserveAspectRatio="xMidYMid meet">

<g transform="translate(0.000000,500.000000) scale(0.100000,-0.100000)"
fill="#000000" stroke="none">
<path d="M0 2500 l0 -2500 2500 0 2500 0 0 2500 0 2500 -2500 0 -2500 0 0
-2500z m3235 730 l730 -731 -316 -314 c-305 -304 -356 -365 -228 -280 62 42
82 40 72 -6 l-6 -33 29 21 c57 40 71 39 124 -11 80 -75 134 -62 262 63 74 72
108 95 108 74 0 -4 -10 -17 -21 -29 l-22 -23 37 -32 c25 -23 36 -41 36 -61 0
-15 2 -28 4 -28 19 0 96 36 129 60 40 29 67 38 67 22 0 -5 -20 -23 -45 -41
-116 -83 -254 -100 -302 -37 l-17 23 -49 -31 c-38 -23 -60 -30 -103 -30 -52
-1 -58 1 -95 42 -22 23 -46 42 -53 42 -8 0 -36 -20 -64 -45 -27 -25 -53 -45
-57 -45 -4 0 -5 20 -2 45 4 25 5 45 2 45 -2 0 -19 -9 -37 -19 -18 -11 -54 -25
-80 -31 -43 -11 -76 -41 -442 -408 l-396 -397 -378 379 c-295 295 -387 381
-418 392 -35 12 -58 31 -66 56 -2 5 -30 -3 -63 -18 -40 -19 -81 -29 -131 -32
-64 -4 -74 -2 -93 17 -17 17 -21 29 -16 52 l7 30 -40 -7 c-32 -5 -44 -2 -61
15 -25 25 -27 49 -5 79 20 29 54 29 54 1 0 -11 -5 -29 -10 -39 -14 -27 3 -34
46 -20 48 16 60 4 43 -44 -10 -28 -10 -39 -1 -48 18 -18 113 -11 173 12 106
40 111 27 -82 216 -94 93 -180 183 -191 199 -12 17 66 -57 173 -162 107 -106
197 -193 200 -193 4 0 24 14 45 30 49 40 97 39 102 -2 4 -32 -26 -56 -80 -65
-40 -6 -52 -29 -20 -39 9 -3 27 -11 39 -16 12 -6 50 -9 87 -6 66 6 156 42 251
103 55 34 98 54 108 48 12 -7 -1 -21 -38 -39 -37 -17 -64 -51 -68 -85 -4 -41
19 -29 52 26 18 30 37 55 42 55 5 0 15 -15 22 -32 38 -90 124 -94 244 -12 53
36 53 37 53 90 l0 54 -52 0 c-29 0 -97 3 -150 7 l-98 6 0 494 0 493 290 0 290
0 0 -27 c0 -32 -28 -277 -36 -311 -4 -21 -10 -23 -52 -20 l-47 3 -22 134 c-12
73 -24 136 -27 139 -4 3 -6 -20 -6 -51 l0 -57 -95 0 -95 0 0 -80 0 -80 90 0
90 0 0 -95 0 -95 -90 0 -90 0 0 -216 0 -215 47 3 47 3 22 79 c23 82 51 123 78
113 21 -8 21 -67 1 -133 -8 -27 -15 -51 -15 -53 0 -2 39 -2 87 0 63 3 87 1 90
-8 3 -10 -12 -13 -54 -14 -32 0 -76 -3 -98 -7 -36 -7 -41 -11 -58 -57 -22 -59
-17 -102 18 -139 17 -18 34 -26 58 -26 42 0 121 39 170 85 21 19 42 35 47 35
6 0 7 -19 4 -44 -6 -38 -3 -45 17 -60 48 -33 147 -9 225 57 47 39 95 60 107
48 6 -6 19 -11 28 -11 13 0 19 -10 21 -32 3 -31 6 -33 43 -36 l40 -3 320 321
320 320 -723 723 -722 722 -722 -722 -723 -723 55 -55 c30 -30 59 -55 66 -55
6 0 19 -9 29 -20 19 -21 85 -29 85 -10 0 5 7 7 15 4 28 -11 15 -31 -24 -38
-36 -5 -39 -9 -60 -65 -35 -96 -125 -172 -170 -144 -45 28 -2 113 89 179 55
40 59 48 31 64 -57 30 -152 -16 -232 -112 -72 -86 -102 -156 -107 -243 -3 -60
0 -75 20 -105 27 -41 116 -90 162 -90 42 1 105 31 140 69 32 33 46 39 46 18 0
-18 -57 -71 -100 -92 -70 -36 -197 -10 -252 52 -47 52 -60 140 -33 229 41 139
211 314 306 314 16 0 10 10 -33 49 l-53 50 730 730 c401 402 732 731 735 731
3 0 334 -329 735 -730z m-106 -222 c70 -35 102 -94 114 -210 l5 -48 -104 0
-104 0 0 45 c0 34 -5 47 -20 55 -51 27 -81 -45 -42 -100 9 -14 63 -70 119
-126 134 -132 148 -161 148 -309 0 -98 -3 -116 -26 -166 -15 -31 -40 -65 -56
-77 -93 -66 -278 -48 -342 34 -33 42 -51 119 -51 216 l0 88 95 0 95 0 0 -78
c0 -54 5 -84 16 -100 18 -26 46 -29 65 -6 18 22 14 114 -6 154 -9 18 -64 81
-121 141 -59 60 -113 127 -124 151 -23 50 -27 158 -8 219 17 59 71 116 126
134 63 20 162 12 221 -17z m-1159 -388 l0 -410 100 0 100 0 0 -85 0 -85 -200
0 -200 0 0 495 0 495 100 0 100 0 0 -410z m856 -638 c-11 -12 -19 -13 -27 -5
-8 8 -4 15 13 27 28 20 39 3 14 -22z"/>
<path d="M1114 2236 c-55 -55 -70 -96 -36 -96 28 0 61 28 93 78 56 89 24 99
-57 18z"/>
<path d="M2530 2164 c-22 -74 -25 -94 -10 -94 5 0 16 24 24 53 26 91 29 107
17 107 -5 0 -19 -30 -31 -66z"/>
<path d="M2500 2024 c0 -8 5 -12 10 -9 6 3 10 10 10 16 0 5 -4 9 -10 9 -5 0
-10 -7 -10 -16z"/>
<path d="M1705 1930 c-17 -19 -17 -20 -1 -20 23 0 56 18 56 30 0 17 -36 11
-55 -10z"/>
<path d="M3933 1932 c-5 -4 -16 -18 -23 -31 -11 -22 -10 -27 10 -43 39 -32
102 -13 87 26 -8 20 -62 56 -74 48z"/>
<path d="M3142 1908 c-19 -25 -23 -55 -7 -68 21 -17 49 -5 39 18 -4 9 -7 27
-7 40 1 24 -9 29 -25 10z"/>
<path d="M2460 1875 c-6 -8 -39 -28 -73 -45 -84 -42 -143 -41 -191 1 l-36 31
-34 -36 c-48 -51 -86 -44 -86 16 0 15 -2 28 -5 28 -3 0 -34 -14 -68 -31 -34
-18 -92 -37 -129 -43 l-68 -11 365 -365 365 -365 385 385 c362 362 383 385
359 392 -19 5 -34 1 -55 -14 -24 -18 -32 -20 -54 -10 -14 7 -30 23 -35 38
l-10 26 -33 -22 c-46 -31 -97 -52 -137 -57 -50 -7 -109 20 -122 55 l-11 29
-49 -34 c-58 -38 -118 -57 -158 -48 -28 6 -90 65 -90 85 0 15 -16 12 -30 -5z"/>
</g>
</svg>
